<?xml version="1.0" standalone="no"?><!DOCTYPE svg PUBLIC "-//W3C//DTD SVG 1.1//EN" "http://www.w3.org/Graphics/SVG/1.1/DTD/svg11.dtd"><svg t="1773287791872" class="icon" viewBox="0 0 1024 1024" version="1.1" xmlns="http://www.w3.org/2000/svg" p-id="9141" xmlns:xlink="http://www.w3.org/1999/xlink" width="200" height="200"><path d="M573.696 252.48c-151.168-55.04-372.416-155.776-372.416-155.776-15.68-4.096-17.92 11.072-17.92 11.072-4.992 61.12 33.664 160.512 53.632 182.848 19.904 22.272 319.104 113.664 319.104 113.664s-230.08-46.4-285.568-62.4c-55.68-16-37.952 17.792-37.952 17.792 11.456 61.696 64.896 131.84 107.2 138.432 42.24 6.592 220.16 3.968 220.16 3.968s-35.52 4.096-93.248 11.904c-42.688 5.76-96.96 12.544-111.104 17.792-33.088 12.544 24 62.656 24 62.656 84.736 76.8 129.728 50.496 129.728 50.496 33.28-10.752 61.44-18.56 85.184-24.256l-29.44 122.432h84.544L603.008 928l205.312-271.872h-107.52l22.272-38.72a4.544 4.544 0 0 1 0.448 0.768s76.288-122.048 105.472-184.32l0.64-1.024h-0.128c4.992-10.88 8.576-19.712 9.984-25.856 17.024-71.296-114.496-99.392-265.792-154.496z" fill="#1C74FB" p-id="9142"></path></svg>