<?xml version="1.0" standalone="no"?><!DOCTYPE svg PUBLIC "-//W3C//DTD SVG 1.1//EN" "http://www.w3.org/Graphics/SVG/1.1/DTD/svg11.dtd"><svg t="1768474882042" class="icon" viewBox="0 0 1024 1024" version="1.1" xmlns="http://www.w3.org/2000/svg" p-id="5965" xmlns:xlink="http://www.w3.org/1999/xlink" width="200" height="200"><path d="M925.789091 426.682182c-35.700364 0-66.187636 21.876364-78.987636 52.968727h-114.967273a31.045818 31.045818 0 0 0-31.045818 31.045818l0.139636 0.698182-0.139636 0.605091c0 102.632727-83.549091 186.181818-186.181819 186.181818s-186.181818-83.549091-186.181818-186.181818 83.549091-186.181818 186.181818-186.181818c42.775273 0 84.386909 14.848 117.527273 41.844363a31.185455 31.185455 0 0 0 43.706182-4.421818 31.185455 31.185455 0 0 0-4.468364-43.752727 248.925091 248.925091 0 0 0-156.765091-55.714909c-59.205818 0-112.965818 21.690182-155.648 56.459636L244.410182 205.684364c12.101818-19.176727 19.362909-41.704727 19.362909-66.048A124.136727 124.136727 0 1 0 139.636364 263.773091c21.643636 0 41.565091-6.050909 59.345454-15.778909l116.829091 116.829091A245.76 245.76 0 0 0 266.379636 512c0 58.600727 21.224727 111.755636 55.202909 154.205091L207.36 780.567273A123.485091 123.485091 0 0 0 139.636364 760.226909 124.136727 124.136727 0 1 0 263.773091 884.363636c0-20.945455-5.678545-40.354909-14.894546-57.669818l117.15491-117.108363a245.76 245.76 0 0 0 148.57309 50.641454c126.743273 0 230.260364-95.697455 245.294546-218.484364h86.155636A85.178182 85.178182 0 0 0 1011.106909 512a85.364364 85.364364 0 0 0-85.364364-85.317818" fill="#185BE9" p-id="5966"></path><path d="M926.161455 604.485818a93.090909 93.090909 0 1 0 0-186.181818 93.090909 93.090909 0 0 0 0 186.181818z" fill="#185BE9" p-id="5967"></path></svg>